# xmcd
#
# Track frame offsets:
#	150
#	17532
#	35760
#	52635
#	71721
#	89683
#	107554
#	124899
#	141024
#	158117
#	172351
#	187496
#	203261
#	218249
# Disc length: 3154 seconds
# Revision: 1
# Processed by: cddbd v1.5.2PL0 Copyright (c) Steve Scherf et al.
#
# Submitted via: libkcddb 0.31
#
DISCID=cc0c500e
DTITLE=Boi Pirilampo - Boi Pirilampo Arte Popular do Maranhão
DYEAR=2005
DGENRE=
TTITLE0=Vagalume Instrumental
TTITLE1=Vovô - Ê lua
TTITLE2=Vovô - Poeira
TTITLE3=Zacarias - Bailarina do Boi
TTITLE4=Godinho - Guarnece
TTITLE5=Zacarias - Saudade Morena
TTITLE6=Zacarias - Orai por Nós
TTITLE7=Godinho - Me Ama, Me Ama
TTITLE8=Vovô - Outra Metade
TTITLE9=Vovô - Boi Apaixonado
TTITLE10=Zacarias - Brilho da Noite
TTITLE11=Godinho - Senhora Dona
TTITLE12=Godinho - Viajante Pirilampo
TTITLE13=Vovô - Verdadeiro Amor
EXTD=
EXTT0=Augusto Bastos
EXTT1=Vovô
EXTT2=Vovô
EXTT3=Jorge Carioca
EXTT4=RD, Godinho e Amós
EXTT5=Veiga Neto e Zé Lopes
EXTT6=RD, Godinho e Amós
EXTT7=RD, Godinho
EXTT8=Zé Lopes e Marcus Garcia
EXTT9=Escrete
EXTT10=Celso Reis - Tutuca
EXTT11=Zé Lopes
EXTT12=RD e Godinho
EXTT13=João Marcos, Ronald Pinheiro e Gerude
PLAYORDER=
